<svg id="_15-Checked" data-name="15-Checked" xmlns="http://www.w3.org/2000/svg" width="25" height="25" viewBox="0 0 25 25">
  <path id="Path_459" data-name="Path 459" d="M106.048,70.925a.54.54,0,0,1-.472-.3c-1.819-3.4-6.67-10.653-6.719-10.726a.646.646,0,0,1,.056-.784L100.4,57.5a.511.511,0,0,1,.7-.065l4.831,3.7a64.023,64.023,0,0,1,8.211-9.554,30.866,30.866,0,0,1,3.7-3.068.511.511,0,0,1,.282-.086h2.413a.552.552,0,0,1,.512.387.642.642,0,0,1-.148.663c-6.853,6.7-14.3,21-14.379,21.14a.541.541,0,0,1-.472.3Z" transform="translate(-96.086 -48.431)" fill="#60ad5a"/>
  <path id="Path_460" data-name="Path 460" d="M59.957,125.782c-5.435,0-9.857-4.856-9.857-10.825s4.422-10.825,9.857-10.825a9.043,9.043,0,0,1,3.2.585.617.617,0,0,1,.34.764.537.537,0,0,1-.7.373,8.04,8.04,0,0,0-2.847-.519c-4.831,0-8.761,4.317-8.761,9.622s3.93,9.622,8.761,9.622,8.761-4.317,8.761-9.622a10.619,10.619,0,0,0-.178-1.938.6.6,0,0,1,.427-.71.551.551,0,0,1,.646.469,11.941,11.941,0,0,1,.2,2.179C69.813,120.926,65.391,125.782,59.957,125.782Z" transform="translate(-50.1 -100.782)" fill="#60ad5a"/>
</svg>
