<svg id="error" xmlns="http://www.w3.org/2000/svg" width="30" height="30" viewBox="0 0 30 30">
  <g id="Group_602" data-name="Group 602">
    <g id="Group_601" data-name="Group 601">
      <path id="Path_449" data-name="Path 449" d="M15,0A15,15,0,1,0,30,15,14.992,14.992,0,0,0,15,0Zm0,27.656A12.656,12.656,0,1,1,27.656,15,12.649,12.649,0,0,1,15,27.656Z"/>
    </g>
  </g>
  <g id="Group_604" data-name="Group 604" transform="translate(9.525 9.524)">
    <g id="Group_603" data-name="Group 603">
      <path id="Path_450" data-name="Path 450" d="M173.163,171.506l-3.475-3.475,3.475-3.475a1.172,1.172,0,1,0-1.657-1.657l-3.475,3.475-3.475-3.475a1.172,1.172,0,1,0-1.657,1.657l3.475,3.475-3.475,3.475a1.172,1.172,0,1,0,1.657,1.657l3.475-3.475,3.475,3.475a1.172,1.172,0,1,0,1.657-1.657Z" transform="translate(-162.555 -162.556)"/>
    </g>
  </g>
</svg>
