<svg id="Line" xmlns="http://www.w3.org/2000/svg" width="24" height="24" viewBox="0 0 24 24">
  <path id="Path_461" data-name="Path 461" d="M14,2A12.029,12.029,0,0,0,2,14.031c.659,15.961,23.343,15.956,24,0A12.029,12.029,0,0,0,14,2Zm0,22.968A10.936,10.936,0,0,1,3.091,14.031c.6-14.51,21.221-14.506,21.818,0A10.936,10.936,0,0,1,14,24.968Z" transform="translate(-2 -2)"/>
  <path id="Path_462" data-name="Path 462" d="M24.35,13H14.532a.546.546,0,0,0-.545.547v2.187a.546.546,0,0,0,.545.547H17.8v1.154c-5.229.282-5,2.926,0,3.161v3.888a.546.546,0,0,0,.545.547h2.182a.546.546,0,0,0,.545-.547V20.6c1.685-.122,3.818-.492,3.818-1.581,0-1.053-1.969-1.444-3.818-1.58V16.281H24.35a.546.546,0,0,0,.545-.547V13.547A.546.546,0,0,0,24.35,13Zm-9.06,6.017a8.882,8.882,0,0,1,2.515-.485V19.5A9.171,9.171,0,0,1,15.29,19.017Zm4.7,4.921H18.9V20.649c.443.009.647.009,1.091,0Zm3.605-4.921a9.213,9.213,0,0,1-2.515.48v-.964A8.888,8.888,0,0,1,23.592,19.017Zm.213-3.829H20.532a.546.546,0,0,0-.545.547v3.818c-.351.012-.74.012-1.091,0V15.734a.546.546,0,0,0-.545-.547H15.077V14.094H23.8Z" transform="translate(-7.44 -6.984)"/>
</svg>
