<svg id="send_1_" data-name="send (1)" xmlns="http://www.w3.org/2000/svg" xmlns:xlink="http://www.w3.org/1999/xlink" width="25" height="25" viewBox="0 0 25 25">
  <defs>
    <linearGradient id="linear-gradient" y1="0.5" x2="1" y2="0.5" gradientUnits="objectBoundingBox">
      <stop offset="0"/>
      <stop offset="1"/>
    </linearGradient>
  </defs>
  <path id="Path_447" data-name="Path 447" d="M26.5,2.968a1.8,1.8,0,0,0-1.854-.438L4.1,9.38a1.812,1.812,0,0,0,.053,3.454l9.135,2.741a.9.9,0,0,1,.607.607l2.74,9.136a1.8,1.8,0,0,0,1.708,1.291h.028A1.805,1.805,0,0,0,20.09,25.37L26.939,4.822A1.8,1.8,0,0,0,26.5,2.968ZM18.372,24.8l-2.74-9.137a2.685,2.685,0,0,0-.166-.375l5.326-5.327A.906.906,0,1,0,19.51,8.677L14.185,14a2.682,2.682,0,0,0-.375-.166L4.674,11.1l20.548-6.85ZM3.58,21.735A.906.906,0,1,1,2.3,20.454l4.529-4.529A.906.906,0,1,1,8.11,17.206Zm9.964-.375a.906.906,0,0,1,0,1.281L9.015,27.17a.906.906,0,1,1-1.281-1.281l4.529-4.529a.906.906,0,0,1,1.281,0Zm-4.556.34-4.5,4.56A.906.906,0,1,1,3.2,24.988l4.5-4.56A.906.906,0,1,1,8.989,21.7Z" transform="translate(-2.034 -2.436)" fill="url(#linear-gradient)"/>
</svg>
