<svg xmlns="http://www.w3.org/2000/svg" width="28" height="28" viewBox="0 0 28 28">
  <g id="Layer_2" data-name="Layer 2" transform="translate(0.005 0.005)">
    <g id="_08.whatsapp" data-name="08.whatsapp" transform="translate(-0.005 -0.005)">
      <path id="background" d="M22.986,27.516a84.724,84.724,0,0,1-17.976,0A5.1,5.1,0,0,1,.473,22.986a84.724,84.724,0,0,1,0-17.976A5.1,5.1,0,0,1,5,.473a84.725,84.725,0,0,1,17.976,0A5.1,5.1,0,0,1,27.517,5a84.724,84.724,0,0,1,0,17.976,5.1,5.1,0,0,1-4.531,4.537Z" transform="translate(0.005 0.005)" fill="#6abf60"/>
      <g id="icon" transform="translate(5.322 5.254)">
        <path id="Path_463" data-name="Path 463" d="M48.3,35.6A8.681,8.681,0,0,0,34.391,45.64l-.921,4.472a.331.331,0,0,0,.052.259.336.336,0,0,0,.356.138l4.383-1.039A8.679,8.679,0,0,0,48.3,35.6ZM46.931,46.5a6.8,6.8,0,0,1-7.83,1.273l-.611-.3-2.687.636.008-.033.557-2.7-.3-.59a6.8,6.8,0,0,1,10.862-7.889.362.362,0,0,0,.035.035A6.8,6.8,0,0,1,46.931,46.5Z" transform="translate(-33.447 -33.024)" fill="#fff"/>
        <path id="Path_464" data-name="Path 464" d="M69.453,68.264a2.823,2.823,0,0,1-1.5,1.311c-1.145.277-2.9.01-5.091-2.03l-.027-.024c-1.923-1.783-2.423-3.268-2.3-4.445a2.813,2.813,0,0,1,1.093-1.667.625.625,0,0,1,.978.224l.708,1.591a.622.622,0,0,1-.078.636l-.358.465a.616.616,0,0,0-.056.687,6.688,6.688,0,0,0,1.214,1.347,7.084,7.084,0,0,0,1.681,1.2.608.608,0,0,0,.667-.14l.415-.418a.636.636,0,0,1,.62-.159l1.681.477a.636.636,0,0,1,.356.94Z" transform="translate(-56.208 -56.768)" fill="#fff"/>
      </g>
    </g>
  </g>
</svg>
